{
  "accessors": [
    {
      "bufferView": 2,
      "componentType": 5126,
      "count": 4848,
      "max": [
        241.0,
        581.9249877929688,
        -24.847999572753906
      ],
      "min": [
        -181.5,
        159.4250030517578,
        -36.84809875488281
      ],
      "type": "VEC3"
    },
    {
      "bufferView": 2,
      "byteOffset": 58176,
      "componentType": 5126,
      "count": 4848,
      "max": [
        1.0,
        1.0,
        1.0
      ],
      "min": [
        -1.0,
        -1.0,
        -1.0
      ],
      "type": "VEC3"
    },
    {
      "bufferView": 1,
      "componentType": 5126,
      "count": 4848,
      "max": [
        70.95649719238281,
        44.47119903564453
      ],
      "min": [
        -9.748270034790039,
        -12.208200454711914
      ],
      "type": "VEC2"
    },
    {
      "bufferView": 1,
      "byteOffset": 38784,
      "componentType": 5126,
      "count": 4848,
      "max": [
        70.95649719238281,
        44.47119903564453
      ],
      "min": [
        -9.748270034790039,
        -12.208200454711914
      ],
      "type": "VEC2"
    },
    {
      "bufferView": 1,
      "byteOffset": 77568,
      "componentType": 5126,
      "count": 4848,
      "max": [
        70.95649719238281,
        44.47119903564453
      ],
      "min": [
        -9.748270034790039,
        -12.208200454711914
      ],
      "type": "VEC2"
    },
    {
      "bufferView": 1,
      "byteOffset": 116352,
      "componentType": 5126,
      "count": 4848,
      "max": [
        70.95649719238281,
        44.47119903564453
      ],
      "min": [
        -9.748270034790039,
        -12.208200454711914
      ],
      "type": "VEC2"
    },
    {
      "bufferView": 0,
      "componentType": 5125,
      "count": 7272,
      "type": "SCALAR"
    },
    {
      "bufferView": 2,
      "byteOffset": 116352,
      "componentType": 5126,
      "count": 3232,
      "max": [
        241.0050048828125,
        581.9299926757813,
        -24.847999572753906
      ],
      "min": [
        -181.5050048828125,
        159.4199981689453,
        -36.84809875488281
      ],
      "type": "VEC3"
    },
    {
      "bufferView": 2,
      "byteOffset": 155136,
      "componentType": 5126,
      "count": 3232,
      "max": [
        1.0,
        1.0,
        0.0
      ],
      "min": [
        -1.0,
        -1.0,
        0.0
      ],
      "type": "VEC3"
    },
    {
      "bufferView": 1,
      "byteOffset": 155136,
      "componentType": 5126,
      "count": 3232,
      "max": [
        42.25,
        1.2000000476837158
      ],
      "min": [
        0.0,
        0.0
      ],
      "type": "VEC2"
    },
    {
      "bufferView": 0,
      "byteOffset": 29088,
      "componentType": 5125,
      "count": 4848,
      "type": "SCALAR"
    },
    {
      "bufferView": 2,
      "byteOffset": 193920,
      "componentType": 5126,
      "count": 3232,
      "max": [
        241.0050048828125,
        581.9299926757813,
        -24.847999572753906
      ],
      "min": [
        -181.5050048828125,
        159.4199981689453,
        -36.84809875488281
      ],
      "type": "VEC3"
    },
    {
      "bufferView": 2,
      "byteOffset": 232704,
      "componentType": 5126,
      "count": 3232,
      "max": [
        1.0,
        1.0,
        0.0
      ],
      "min": [
        -1.0,
        -1.0,
        0.0
      ],
      "type": "VEC3"
    },
    {
      "bufferView": 1,
      "byteOffset": 180992,
      "componentType": 5126,
      "count": 3232,
      "max": [
        42.25,
        1.2000000476837158
      ],
      "min": [
        0.0,
        0.0
      ],
      "type": "VEC2"
    },
    {
      "bufferView": 0,
      "byteOffset": 48480,
      "componentType": 5125,
      "count": 4848,
      "type": "SCALAR"
    },
    {
      "bufferView": 2,
      "byteOffset": 271488,
      "componentType": 5126,
      "count": 9600,
      "max": [
        220.89999389648438,
        561.8250122070313,
        -36.80690002441406
      ],
      "min": [
        -161.5,
        179.4250030517578,
        -37.30690002441406
      ],
      "type": "VEC3"
    },
    {
      "bufferView": 2,
      "byteOffset": 386688,
      "componentType": 5126,
      "count": 9600,
      "max": [
        1.0,
        1.0,
        1.0
      ],
      "min": [
        -1.0,
        -1.0,
        -1.0
      ],
      "type": "VEC3"
    },
    {
      "bufferView": 1,
      "byteOffset": 206848,
      "componentType": 5126,
      "count": 9600,
      "max": [
        8.050000190734863,
        8.050000190734863
      ],
      "min": [
        0.0,
        0.0
      ],
      "type": "VEC2"
    },
    {
      "bufferView": 1,
      "byteOffset": 283648,
      "componentType": 5126,
      "count": 9600,
      "max": [
        8.050000190734863,
        8.050000190734863
      ],
      "min": [
        0.0,
        0.0
      ],
      "type": "VEC2"
    },
    {
      "bufferView": 0,
      "byteOffset": 67872,
      "componentType": 5125,
      "count": 14400,
      "type": "SCALAR"
    },
    {
      "bufferView": 2,
      "byteOffset": 501888,
      "componentType": 5126,
      "count": 1600,
      "max": [
        220.89999389648438,
        561.8250122070313,
        -36.80189895629883
      ],
      "min": [
        -161.5,
        179.4250030517578,
        -36.80189895629883
      ],
      "type": "VEC3"
    },
    {
      "bufferView": 2,
      "byteOffset": 521088,
      "componentType": 5126,
      "count": 1600,
      "max": [
        0.0,
        0.0,
        1.0
      ],
      "min": [
        0.0,
        0.0,
        1.0
      ],
      "type": "VEC3"
    },
    {
      "bufferView": 1,
      "byteOffset": 360448,
      "componentType": 5126,
      "count": 1600,
      "max": [
        1.0,
        1.0
      ],
      "min": [
        0.0,
        0.0
      ],
      "type": "VEC2"
    },
    {
      "bufferView": 0,
      "byteOffset": 125472,
      "componentType": 5125,
      "count": 2400,
      "type": "SCALAR"
    },
    {
      "bufferView": 2,
      "byteOffset": 540288,
      "componentType": 5126,
      "count": 24,
      "max": [
        299.0,
        641.9249877929688,
        -36.84809875488281
      ],
      "min": [
        -199.0,
        141.9250030517578,
        -37.84809875488281
      ],
      "type": "VEC3"
    },
    {
      "bufferView": 2,
      "byteOffset": 540576,
      "componentType": 5126,
      "count": 24,
      "max": [
        1.0,
        1.0,
        1.0
      ],
      "min": [
        -1.0,
        -1.0,
        -1.0
      ],
      "type": "VEC3"
    },
    {
      "bufferView": 1,
      "byteOffset": 373248,
      "componentType": 5126,
      "count": 24,
      "max": [
        69.0,
        67.75
      ],
      "min": [
        6.5,
        5.25
      ],
      "type": "VEC2"
    },
    {
      "bufferView": 1,
      "byteOffset": 373440,
      "componentType": 5126,
      "count": 24,
      "max": [
        69.0,
        67.75
      ],
      "min": [
        6.5,
        5.25
      ],
      "type": "VEC2"
    },
    {
      "bufferView": 0,
      "byteOffset": 135072,
      "componentType": 5125,
      "count": 36,
      "type": "SCALAR"
    },
    {
      "bufferView": 2,
      "byteOffset": 540864,
      "componentType": 5126,
      "count": 4,
      "max": [
        299.0,
        641.9249877929688,
        -36.843101501464844
      ],
      "min": [
        -199.0,
        141.9250030517578,
        -36.843101501464844
      ],
      "type": "VEC3"
    },
    {
      "bufferView": 2,
      "byteOffset": 540912,
      "componentType": 5126,
      "count": 4,
      "max": [
        0.0,
        0.0,
        1.0
      ],
      "min": [
        0.0,
        0.0,
        1.0
      ],
      "type": "VEC3"
    },
    {
      "bufferView": 1,
      "byteOffset": 373632,
      "componentType": 5126,
      "count": 4,
      "max": [
        49.79999923706055,
        50.0
      ],
      "min": [
        0.0,
        0.0
      ],
      "type": "VEC2"
    },
    {
      "bufferView": 0,
      "byteOffset": 135216,
      "componentType": 5125,
      "count": 6,
      "type": "SCALAR"
    },
    {
      "bufferView": 2,
      "byteOffset": 540960,
      "componentType": 5126,
      "count": 24,
      "max": [
        299.0,
        641.9249877929688,
        -23.848100662231445
      ],
      "min": [
        -199.0,
        141.9250030517578,
        -24.848100662231445
      ],
      "type": "VEC3"
    },
    {
      "bufferView": 2,
      "byteOffset": 541248,
      "componentType": 5126,
      "count": 24,
      "max": [
        1.0,
        1.0,
        1.0
      ],
      "min": [
        -1.0,
        -1.0,
        -1.0
      ],
      "type": "VEC3"
    },
    {
      "bufferView": 1,
      "byteOffset": 373664,
      "componentType": 5126,
      "count": 24,
      "max": [
        81.10009765625,
        40.2150993347168
      ],
      "min": [
        18.600099563598633,
        -22.284900665283203
      ],
      "type": "VEC2"
    },
    {
      "bufferView": 1,
      "byteOffset": 373856,
      "componentType": 5126,
      "count": 24,
      "max": [
        81.10009765625,
        40.2150993347168
      ],
      "min": [
        18.600099563598633,
        -22.284900665283203
      ],
      "type": "VEC2"
    },
    {
      "bufferView": 1,
      "byteOffset": 374048,
      "componentType": 5126,
      "count": 24,
      "max": [
        81.10009765625,
        40.2150993347168
      ],
      "min": [
        18.600099563598633,
        -22.284900665283203
      ],
      "type": "VEC2"
    },
    {
      "bufferView": 1,
      "byteOffset": 374240,
      "componentType": 5126,
      "count": 24,
      "max": [
        81.10009765625,
        40.2150993347168
      ],
      "min": [
        18.600099563598633,
        -22.284900665283203
      ],
      "type": "VEC2"
    },
    {
      "bufferView": 0,
      "byteOffset": 135240,
      "componentType": 5125,
      "count": 36,
      "type": "SCALAR"
    },
    {
      "bufferView": 2,
      "byteOffset": 541536,
      "componentType": 5126,
      "count": 4,
      "max": [
        299.0,
        641.9249877929688,
        -24.853099822998047
      ],
      "min": [
        -199.0,
        141.9250030517578,
        -24.853099822998047
      ],
      "type": "VEC3"
    },
    {
      "bufferView": 2,
      "byteOffset": 541584,
      "componentType": 5126,
      "count": 4,
      "max": [
        0.0,
        0.0,
        -1.0
      ],
      "min": [
        0.0,
        0.0,
        -1.0
      ],
      "type": "VEC3"
    },
    {
      "bufferView": 1,
      "byteOffset": 374432,
      "componentType": 5126,
      "count": 4,
      "max": [
        49.79999923706055,
        50.0
      ],
      "min": [
        0.0,
        0.0
      ],
      "type": "VEC2"
    },
    {
      "bufferView": 0,
      "byteOffset": 135384,
      "componentType": 5125,
      "count": 6,
      "type": "SCALAR"
    },
    {
      "bufferView": 2,
      "byteOffset": 541632,
      "componentType": 5126,
      "count": 4,
      "max": [
        299.0,
        641.9249877929688,
        -24.853099822998047
      ],
      "min": [
        -199.0,
        141.9250030517578,
        -24.853099822998047
      ],
      "type": "VEC3"
    },
    {
      "bufferView": 2,
      "byteOffset": 541680,
      "componentType": 5126,
      "count": 4,
      "max": [
        0.0,
        0.0,
        -1.0
      ],
      "min": [
        0.0,
        0.0,
        -1.0
      ],
      "type": "VEC3"
    },
    {
      "bufferView": 1,
      "byteOffset": 374464,
      "componentType": 5126,
      "count": 4,
      "max": [
        4.150000095367432,
        8.333330154418945
      ],
      "min": [
        0.0,
        0.0
      ],
      "type": "VEC2"
    },
    {
      "bufferView": 0,
      "byteOffset": 135408,
      "componentType": 5125,
      "count": 6,
      "type": "SCALAR"
    }
  ],
  "asset": {
    "extras": {
      "author": "Dave Love SketchFab (https://sketchfab.com/Tyler_Dave)",
      "license": "CC-BY-4.0 (http://creativecommons.org/licenses/by/4.0/)",
      "source": "https://sketchfab.com/3d-models/liminal-space-the-backrooms-8023c8b63fe540229355c27a4f74402e",
      "title": "(Liminal Space) The Backrooms"
    },
    "generator": "Sketchfab-17.15.0",
    "version": "2.0"
  },
  "bufferViews": [
    {
      "buffer": 0,
      "byteLength": 135432,
      "name": "floatBufferViews",
      "target": 34963
    },
    {
      "buffer": 0,
      "byteLength": 374496,
      "byteOffset": 135432,
      "byteStride": 8,
      "name": "floatBufferViews",
      "target": 34962
    },
    {
      "buffer": 0,
      "byteLength": 541728,
      "byteOffset": 509928,
      "byteStride": 12,
      "name": "floatBufferViews",
      "target": 34962
    }
  ],
  "buffers": [
    {
      "byteLength": 1051656,
      "uri": "scene.bin"
    }
  ],
  "extensionsUsed": [
    "KHR_materials_specular",
    "KHR_materials_emissive_strength"
  ],
  "images": [
    {
      "uri": "textures/Wall1Mtl.001_baseColor.png"
    },
    {
      "uri": "textures/Light1Mtl.001_baseColor.png"
    },
    {
      "uri": "textures/Part1Mtl.001_baseColor.png"
    },
    {
      "uri": "textures/Part2Mtl.001_baseColor.png"
    },
    {
      "uri": "textures/Part4Mtl.001_baseColor.png"
    },
    {
      "uri": "textures/Part5Mtl.001_baseColor.png"
    }
  ],
  "materials": [
    {
      "doubleSided": true,
      "extensions": {
        "KHR_materials_specular": {
          "specularColorFactor": [
            1.0,
            1.0,
            1.0
          ],
          "specularFactor": 0.0542414
        }
      },
      "name": "Wall1Mtl.001",
      "pbrMetallicRoughness": {
        "baseColorTexture": {
          "index": 0
        },
        "metallicFactor": 0.0
      }
    },
    {
      "doubleSided": true,
      "extensions": {
        "KHR_materials_specular": {
          "specularColorFactor": [
            1.0,
            1.0,
            1.0
          ],
          "specularFactor": 0.109804
        }
      },
      "name": "Wall2Mtl.001",
      "pbrMetallicRoughness": {
        "baseColorTexture": {
          "index": 0
        },
        "metallicFactor": 0.0
      }
    },
    {
      "doubleSided": true,
      "extensions": {
        "KHR_materials_specular": {
          "specularColorFactor": [
            1.0,
            1.0,
            1.0
          ],
          "specularFactor": 0.109804
        }
      },
      "name": "Wall3Mtl.001",
      "pbrMetallicRoughness": {
        "baseColorTexture": {
          "index": 0
        },
        "metallicFactor": 0.0
      }
    },
    {
      "doubleSided": true,
      "emissiveFactor": [
        1.0,
        1.0,
        1.0
      ],
      "emissiveTexture": {
        "index": 1
      },
      "extensions": {
        "KHR_materials_emissive_strength": {
          "emissiveStrength": 3.03346817124929
        },
        "KHR_materials_specular": {
          "specularColorFactor": [
            1.0,
            1.0,
            1.0
          ],
          "specularFactor": 0.000324496
        }
      },
      "name": "Light1Mtl.001",
      "pbrMetallicRoughness": {
        "baseColorTexture": {
          "index": 1
        },
        "metallicFactor": 0.0
      }
    },
    {
      "alphaMode": "BLEND",
      "doubleSided": true,
      "emissiveTexture": {
        "index": 1
      },
      "extensions": {
        "KHR_materials_specular": {
          "specularColorFactor": [
            1.0,
            1.0,
            1.0
          ],
          "specularFactor": 0.12549
        }
      },
      "name": "Light2Mtl.001",
      "pbrMetallicRoughness": {
        "baseColorFactor": [
          1.0,
          1.0,
          1.0,
          0.7406035171729057
        ],
        "baseColorTexture": {
          "index": 1
        },
        "metallicFactor": 0.0
      }
    },
    {
      "doubleSided": true,
      "extensions": {
        "KHR_materials_specular": {
          "specularColorFactor": [
            1.0,
            1.0,
            1.0
          ],
          "specularFactor": 0.118036
        }
      },
      "name": "Part1Mtl.001",
      "pbrMetallicRoughness": {
        "baseColorTexture": {
          "index": 2
        },
        "metallicFactor": 0.0
      }
    },
    {
      "doubleSided": true,
      "extensions": {
        "KHR_materials_specular": {
          "specularColorFactor": [
            1.0,
            1.0,
            1.0
          ],
          "specularFactor": 0.107099
        }
      },
      "name": "Part2Mtl.001",
      "pbrMetallicRoughness": {
        "baseColorTexture": {
          "index": 3
        },
        "metallicFactor": 0.0
      }
    },
    {
      "doubleSided": true,
      "extensions": {
        "KHR_materials_specular": {
          "specularColorFactor": [
            1.0,
            1.0,
            1.0
          ],
          "specularFactor": 0.0476074
        }
      },
      "name": "Part3Mtl.001",
      "pbrMetallicRoughness": {
        "baseColorTexture": {
          "index": 3
        },
        "metallicFactor": 0.0
      }
    },
    {
      "alphaMode": "BLEND",
      "doubleSided": true,
      "emissiveFactor": [
        0.017434434444677214,
        0.013720066136210417,
        0.0
      ],
      "extensions": {
        "KHR_materials_specular": {
          "specularColorFactor": [
            1.0,
            1.0,
            1.0
          ],
          "specularFactor": 0.0
        }
      },
      "name": "Part4Mtl.001",
      "pbrMetallicRoughness": {
        "baseColorTexture": {
          "index": 4
        },
        "metallicFactor": 0.0,
        "roughnessFactor": 0.0
      }
    },
    {
      "alphaMode": "BLEND",
      "doubleSided": true,
      "extensions": {
        "KHR_materials_specular": {
          "specularColorFactor": [
            1.0,
            1.0,
            1.0
          ],
          "specularFactor": 0.026143
        }
      },
      "name": "Part5Mtl.001",
      "pbrMetallicRoughness": {
        "baseColorFactor": [
          1.0,
          1.0,
          1.0,
          0.40051497269114605
        ],
        "baseColorTexture": {
          "index": 5
        },
        "metallicFactor": 0.0
      }
    }
  ],
  "meshes": [
    {
      "name": "Object_0",
      "primitives": [
        {
          "attributes": {
            "NORMAL": 1,
            "POSITION": 0,
            "TEXCOORD_0": 2,
            "TEXCOORD_1": 3,
            "TEXCOORD_2": 4,
            "TEXCOORD_3": 5
          },
          "indices": 6,
          "material": 0,
          "mode": 4
        }
      ]
    },
    {
      "name": "Object_1",
      "primitives": [
        {
          "attributes": {
            "NORMAL": 8,
            "POSITION": 7,
            "TEXCOORD_0": 9
          },
          "indices": 10,
          "material": 1,
          "mode": 4
        }
      ]
    },
    {
      "name": "Object_2",
      "primitives": [
        {
          "attributes": {
            "NORMAL": 12,
            "POSITION": 11,
            "TEXCOORD_0": 13
          },
          "indices": 14,
          "material": 2,
          "mode": 4
        }
      ]
    },
    {
      "name": "Object_3",
      "primitives": [
        {
          "attributes": {
            "NORMAL": 16,
            "POSITION": 15,
            "TEXCOORD_0": 17,
            "TEXCOORD_1": 18
          },
          "indices": 19,
          "material": 3,
          "mode": 4
        }
      ]
    },
    {
      "name": "Object_4",
      "primitives": [
        {
          "attributes": {
            "NORMAL": 21,
            "POSITION": 20,
            "TEXCOORD_0": 22
          },
          "indices": 23,
          "material": 4,
          "mode": 4
        }
      ]
    },
    {
      "name": "Object_5",
      "primitives": [
        {
          "attributes": {
            "NORMAL": 25,
            "POSITION": 24,
            "TEXCOORD_0": 26,
            "TEXCOORD_1": 27
          },
          "indices": 28,
          "material": 5,
          "mode": 4
        }
      ]
    },
    {
      "name": "Object_6",
      "primitives": [
        {
          "attributes": {
            "NORMAL": 30,
            "POSITION": 29,
            "TEXCOORD_0": 31
          },
          "indices": 32,
          "material": 6,
          "mode": 4
        }
      ]
    },
    {
      "name": "Object_7",
      "primitives": [
        {
          "attributes": {
            "NORMAL": 34,
            "POSITION": 33,
            "TEXCOORD_0": 35,
            "TEXCOORD_1": 36,
            "TEXCOORD_2": 37,
            "TEXCOORD_3": 38
          },
          "indices": 39,
          "material": 7,
          "mode": 4
        }
      ]
    },
    {
      "name": "Object_8",
      "primitives": [
        {
          "attributes": {
            "NORMAL": 41,
            "POSITION": 40,
            "TEXCOORD_0": 42
          },
          "indices": 43,
          "material": 8,
          "mode": 4
        }
      ]
    },
    {
      "name": "Object_9",
      "primitives": [
        {
          "attributes": {
            "NORMAL": 45,
            "POSITION": 44,
            "TEXCOORD_0": 46
          },
          "indices": 47,
          "material": 9,
          "mode": 4
        }
      ]
    }
  ],
  "nodes": [
    {
      "children": [
        1
      ],
      "matrix": [
        1.0,
        0.0,
        0.0,
        0.0,
        0.0,
        2.220446049250313e-16,
        -1.0,
        0.0,
        0.0,
        1.0,
        2.220446049250313e-16,
        0.0,
        0.0,
        0.0,
        0.0,
        1.0
      ],
      "name": "Sketchfab_model"
    },
    {
      "children": [
        2
      ],
      "name": "root"
    },
    {
      "children": [
        3
      ],
      "matrix": [
        1.0,
        0.0,
        0.0,
        0.0,
        0.0,
        2.220446049250313e-16,
        1.0,
        0.0,
        0.0,
        -1.0,
        2.220446049250313e-16,
        0.0,
        0.0,
        0.0,
        0.0,
        1.0
      ],
      "name": "GLTF_SceneRootNode"
    },
    {
      "children": [
        4,
        5,
        6,
        7,
        8,
        9,
        10,
        11,
        12,
        13
      ],
      "matrix": [
        1.0,
        0.0,
        0.0,
        0.0,
        0.0,
        0.0,
        1.0,
        0.0,
        0.0,
        -1.0,
        0.0,
        0.0,
        0.0,
        0.0,
        -414.72698974609375,
        1.0
      ],
      "name": "backroom_0"
    },
    {
      "mesh": 0,
      "name": "Object_4"
    },
    {
      "mesh": 1,
      "name": "Object_5"
    },
    {
      "mesh": 2,
      "name": "Object_6"
    },
    {
      "mesh": 3,
      "name": "Object_7"
    },
    {
      "mesh": 4,
      "name": "Object_8"
    },
    {
      "mesh": 5,
      "name": "Object_9"
    },
    {
      "mesh": 6,
      "name": "Object_10"
    },
    {
      "mesh": 7,
      "name": "Object_11"
    },
    {
      "mesh": 8,
      "name": "Object_12"
    },
    {
      "mesh": 9,
      "name": "Object_13"
    }
  ],
  "samplers": [
    {
      "magFilter": 9729,
      "minFilter": 9987,
      "wrapS": 10497,
      "wrapT": 10497
    }
  ],
  "scene": 0,
  "scenes": [
    {
      "name": "Sketchfab_Scene",
      "nodes": [
        0
      ]
    }
  ],
  "textures": [
    {
      "sampler": 0,
      "source": 0
    },
    {
      "sampler": 0,
      "source": 1
    },
    {
      "sampler": 0,
      "source": 2
    },
    {
      "sampler": 0,
      "source": 3
    },
    {
      "sampler": 0,
      "source": 4
    },
    {
      "sampler": 0,
      "source": 5
    }
  ]
}
